<svg xmlns="http://www.w3.org/2000/svg" viewBox="0 0 1024 1024" role="img" aria-labelledby="title desc">
  <title id="title">모임좌표 로고</title>
  <desc id="desc">가능 시간 보드와 중간지점 마커를 결합한 모임 조율 아이콘</desc>
  <rect width="1024" height="1024" fill="#f2ddda"/>
  <path d="M4 4h124v124H4zm128 0h124v124H132zm128 0h124v124H260zm128 0h124v124H388zm128 0h124v124H516zm128 0h124v124H644zm128 0h124v124H772zm128 0h124v124H900zM4 132h124v124H4zm128 0h124v124H132zm128 0h124v124H260zm128 0h124v124H388zm128 0h124v124H516zm128 0h124v124H644zm128 0h124v124H772zm128 0h124v124H900zM4 260h124v124H4zm128 0h124v124H132zm128 0h124v124H260zm128 0h124v124H388zm128 0h124v124H516zm128 0h124v124H644zm128 0h124v124H772zm128 0h124v124H900zM4 388h124v124H4zm128 0h124v124H132zm128 0h124v124H260zm128 0h124v124H388zm128 0h124v124H516zm128 0h124v124H644zm128 0h124v124H772zm128 0h124v124H900zM4 516h124v124H4zm128 0h124v124H132zm128 0h124v124H260zm128 0h124v124H388zm128 0h124v124H516zm128 0h124v124H644zm128 0h124v124H772zm128 0h124v124H900zM4 644h124v124H4zm128 0h124v124H132zm128 0h124v124H260zm128 0h124v124H388zm128 0h124v124H516zm128 0h124v124H644zm128 0h124v124H772zm128 0h124v124H900zM4 772h124v124H4zm128 0h124v124H132zm128 0h124v124H260zm128 0h124v124H388zm128 0h124v124H516zm128 0h124v124H644zm128 0h124v124H772zm128 0h124v124H900zM4 900h124v124H4zm128 0h124v124H132zm128 0h124v124H260zm128 0h124v124H388zm128 0h124v124H516zm128 0h124v124H644zm128 0h124v124H772zm128 0h124v124H900z" fill="#f7e8e5" opacity=".72"/>
  <rect x="192" y="209" width="641" height="608" rx="92" fill="#51699d"/>
  <rect x="279" y="297" width="468" height="136" rx="38" fill="#4da07e"/>
  <rect x="279" y="489" width="468" height="56" rx="28" fill="#f8fafc"/>
  <rect x="279" y="591" width="344" height="56" rx="28" fill="#f8fafc"/>
  <circle cx="707" cy="661" r="74" fill="#4da07e"/>
  <circle cx="707" cy="661" r="38" fill="#f8fafc"/>
</svg>
